<svg aria-hidden="true" style="position:absolute;width:0;height:0" xmlns="http://www.w3.org/2000/svg" overflow="hidden"><defs><symbol id="icon-antenna" viewBox="0 0 32 32"><path fill="var(--color1, #212121)" d="M30.773 22.098l-8.443-8.505.937-4.616c.225.09.485.144.758.146h.033a2.16 2.16 0 10-2.029-1.42l-.005-.015-4.96.606L8.973.161a.53.53 0 00-.376-.16.536.536 0 00-.373.155L6.712 1.66a.535.535 0 000 .754l.814.825C6.383 5.301 5.71 7.761 5.71 10.378c0 4.106 1.656 7.824 4.336 10.525l-.001-.001a.49.49 0 00.146.097 2.986 2.986 0 00-.052.546v6.188h-6.4a2.669 2.669 0 00-2.667 2.666v1.067c0 .295.239.534.534.534H26.14a.534.534 0 00.533-.534v-1.067a2.67 2.67 0 00-2.666-2.666h-6.4v-2.742a14.784 14.784 0 0010.166-1.502l-.077.039.818.823a.534.534 0 00.376.16.536.536 0 00.373-.155l1.512-1.504a.535.535 0 000-.754zM23.28 6.233a1.067 1.067 0 11.752 1.822h-.004a1.066 1.066 0 01-.747-1.822h-.002zm-1.256 3.504l-.598 2.946-1.175-1.183 1.774-1.763zm-.605-.902l-1.92 1.909-1.486-1.493 3.406-.416zM24.004 28.8a1.6 1.6 0 011.6 1.6v.534H2.138V30.4a1.6 1.6 0 011.6-1.6h20.267zm-7.466-2.134v1.067h-5.334v-1.067h5.334zM11.204 25.6v-4.053c0-1.294 1.196-2.346 2.667-2.346s2.667 1.053 2.667 2.346V25.6h-5.334zm6.4-1.696v-2.357c0-1.882-1.675-3.413-3.733-3.413h-.058c-1.353 0-2.54.707-3.213 1.771l-.009.016a13.817 13.817 0 01-3.812-9.55c0-2.314.567-4.496 1.569-6.414l-.036.077 18.602 18.709c-1.823.947-3.979 1.502-6.266 1.502-1.079 0-2.128-.124-3.136-.357l.093.018zm11.289-.684L7.836 2.039l.754-.752 7.935 7.98c.004 0 .006.007.01.01l13.114 13.191-.757.752z"/><path fill="var(--color2, #2196f3)" d="M13.876 20.267h-.007a1.6 1.6 0 00-.003 3.2h.007a1.6 1.6 0 00.002-3.2zm.373 1.978a.534.534 0 11-.378-.912.533.533 0 01.374.911h.005z"/></symbol><symbol id="icon-astronaut" viewBox="0 0 32 32"><path fill="var(--color2, #2196f3)" d="M31.974 4.524a.535.535 0 00-.427-.362h-.003l-1.91-.278-.855-1.731c-.179-.365-.777-.365-.956 0l-.855 1.731-1.911.278a.534.534 0 00-.296.91l1.383 1.348-.326 1.903a.532.532 0 00.774.562l1.708-.899 1.709.899a.534.534 0 00.773-.565v.003l-.326-1.903 1.383-1.348a.532.532 0 00.133-.551l.001.004zm-2.463 1.327a.534.534 0 00-.153.472l.191 1.114-1.001-.526a.524.524 0 00-.499.001l.003-.001-1.001.526.192-1.114a.533.533 0 00-.153-.472l-.811-.789 1.119-.163a.532.532 0 00.402-.292l.5-1.013.501 1.013a.532.532 0 00.402.292l1.119.162-.809.79zm-3.377 14.671h-1.067v1.067h1.067v-1.067zm0 2.134h-1.067v1.066h1.067v-1.066zm1.066-1.067h-1.067v1.067H27.2v-1.067zM25.067 21.589H24v1.067h1.067v-1.067zm-2.667 4.8h-1.067v1.067H22.4v-1.067zm0 2.134h-1.067v1.067H22.4v-1.067zm1.066-1.067h-1.067v1.067h1.067v-1.067zm-2.132 0h-1.067v1.067h1.067v-1.067zM16 24.256h-1.067v1.067H16v-1.067zm0 2.133h-1.067v1.067H16v-1.067zm1.067-1.067H16v1.067h1.067v-1.067zm-2.134 0h-1.066v1.067h1.066v-1.067zm-9.066-19.2H4.8v1.066h1.067V6.122zm0 2.134H4.8v1.066h1.067V8.256zm1.066-1.067H5.866v1.067h1.066V7.189zm-2.133 0H3.733v1.067H4.8V7.189z"/><path fill="var(--color1, #212121)" d="M24.715 14.16a1.774 1.774 0 00-1.179-.703l-.009-.001a1.769 1.769 0 00-1.344.355l.004-.003-1.253.96-1.898 1.417-1.358-.541c2.421-1.086 4.113-3.508 4.113-6.32 0-3.823-3.122-6.934-6.961-6.934S7.869 5.5 7.869 9.324c0 1.386.415 2.674 1.12 3.759l-2.768-.024c-.009 0-.016.005-.023.005a.511.511 0 00-.159.033l.004-.001c-.013.005-.026.007-.038.013-.006.003-.013.003-.019.006l-3.233 1.596-.001.001-1.893.91a.429.429 0 00-.064.036l.001-.001a1.782 1.782 0 00-.594 2.306l-.005-.01c.22.424.592.742 1.043.885l.013.003a1.772 1.772 0 001.388-.133l-.009.005 1.388-.738 2.264-1.169 1.357-.008-5.442 5.415-.001.001-1.339 1.333c-.303.299-.49.714-.49 1.173v.005a1.66 1.66 0 001.666 1.663h.004a1.67 1.67 0 001.18-.485l1.314-1.309 1.741-1.3.901.897-3.102 3.088a1.645 1.645 0 00-.491 1.174v.004a1.662 1.662 0 001.666 1.664h.003a1.67 1.67 0 001.18-.485l4.488-4.472c.007-.006.016-.009.022-.016l5.166-5.658 3.471.494a.474.474 0 00.262-.032c.018-.006.033-.015.05-.023.019-.01.039-.015.058-.027l3.213-2.133c.012-.008.018-.021.029-.03.013-.01.029-.014.041-.026l1.271-1.191c.348-.326.564-.787.564-1.3 0-.4-.132-.769-.355-1.066l.003.005zM2.13 17.77a.706.706 0 01-.564.05l.005.001a.717.717 0 01-.214-1.258l.002-.001 1.314-.632.316.924.133.389-.992.527zm3.497-1.828l-1.548.8-.255-.746-.184-.537 2.027-1.001-.04 1.484zm15.1-6.62c0 .918-.219 1.785-.599 2.56l-4.181-1.899a1.865 1.865 0 00-.782-1.384l-.006-.004 1.463-4.861c2.378.756 4.105 2.974 4.105 5.588zm-11.789 0c0-3.235 2.644-5.867 5.894-5.867.253 0 .5.022.745.053l-1.432 4.753c-.019 0-.037-.006-.057-.006h-.001a1.872 1.872 0 00-1.872 1.867 1.873 1.873 0 001.872 1.867h.001c.695 0 1.295-.383 1.618-.944l3.863 1.755a5.893 5.893 0 01-4.737 2.389c-3.25 0-5.894-2.632-5.894-5.867zm5.957.8c0 .441-.362.8-.806.8h-.001a.804.804 0 01-.804-.8c0-.441.361-.8.806-.8s.806.359.806.8zM2.464 25.146a.606.606 0 01-.855.001.591.591 0 010-.844l.962-.959.852.848-.959.955zm3.214 3.734a.606.606 0 01-.855.001.591.591 0 010-.844l.963-.959.852.848-.96.955zm3.482-3.469l-.001.001-1.765 1.76-.852-.848 1.765-1.757a.527.527 0 00.09-.136c.007-.014.02-.026.026-.04.016-.041.019-.085.026-.128.003-.025.014-.048.014-.073 0-.035-.013-.07-.02-.105-.006-.032-.006-.064-.019-.096a.536.536 0 00-.092-.138c-.01-.012-.014-.027-.025-.038h-.001l-.001-.002-1.607-1.6c-.017-.017-.039-.024-.058-.038a.563.563 0 00-.084-.057l-.003-.001a.415.415 0 00-.09-.031l-.003-.001a.502.502 0 00-.101-.02h-.002l-.023-.001a.603.603 0 00-.075.005h.003c-.036.005-.069.009-.104.021a.512.512 0 00-.097.046l.002-.001c-.02.011-.042.015-.061.029l-1.773 1.324-.901-.897 2.399-2.386 4.361 4.289-.928.919zm6.819-7.017c-.015-.002-.03.004-.045.003l-.027-.001a.562.562 0 00-.092.008h.003a.484.484 0 00-.187.07l.002-.001a.492.492 0 00-.083.061c-.013.011-.028.016-.04.029l-4.698 5.146-4.328-4.256 2.833-2.818a.535.535 0 00-.378-.911h-.002l-2.219.013.028-1.607 3.104.027a6.928 6.928 0 004.978 2.101h.003c.438 0 .864-.046 1.28-.122.04.032.08.064.129.085l2.41.96.152.759.178.885-3.003-.427zm4.041.178l-.313-1.558 1.446-1.08.946 1.257-2.08 1.381zm3.754-2.831l-.838.785-.931-1.237.831-.637a.735.735 0 01.543-.143.718.718 0 01.621.71.71.71 0 01-.226.521z"/><path fill="var(--color1, #212121)" d="M13.602 18.544l-2.143-2.134a.53.53 0 00-.752 0l-2.143 2.134a.535.535 0 000 .756l2.143 2.134a.53.53 0 00.752 0l2.143-2.134a.532.532 0 000-.756zm-2.519 1.759l-1.387-1.381 1.386-1.381 1.387 1.381-1.387 1.381zm6.081-15.232l-.258 1.036c.071.018 1.738.452 1.738 2.149h1.067c0-2.017-1.666-2.965-2.547-3.184zm2.547 4.251h-1.067v1.066h1.067V9.322z"/></symbol><symbol id="icon-clock" viewBox="0 0 32 32"><path fill="var(--color1, #212121)" d="M31.296 15.301C31.295 6.849 24.441-.002 15.988 0S.685 6.855.687 15.308c.002 6.788 4.422 12.543 10.541 14.545l.108.031a.667.667 0 00.529-.065.636.636 0 00.283-.357l3.865-12.25a1.913 1.913 0 10-.852-3.63l.011-.005-5.106-5.107a.638.638 0 00-.902.902l5.103 5.109a1.847 1.847 0 00-.191.826c0 .602.283 1.137.723 1.48l.004.003-3.682 11.673C3.843 25.782.117 17.709 2.797 10.431S13.551-.573 20.829 2.108c7.278 2.681 11.004 10.754 8.323 18.032-1.345 3.581-4.003 6.406-7.374 7.938l-.088.036-.398-1.874a.639.639 0 00-1.05-.343l.001-.001-3.837 3.426a.637.637 0 00.227 1.083l.005.001 4.899 1.563a.637.637 0 00.818-.744l.001.004-.391-1.839c5.528-2.374 9.329-7.772 9.329-14.057v-.034.002zm-15.304-.637a.638.638 0 010 1.276.638.638 0 010-1.276zm2.1 14.864l2.184-1.948.603 2.84-2.787-.892z"/><path fill="var(--color2, #2196f3)" d="M15.354 3.185V4.46a.638.638 0 001.276 0V3.185a.638.638 0 10-1.276 0zM3.876 14.664a.638.638 0 000 1.276h1.275a.638.638 0 000-1.276H3.876zm24.232 1.275a.638.638 0 000-1.276h-1.275a.638.638 0 000 1.276h1.275z"/></symbol><symbol id="icon-diagram" viewBox="0 0 32 32"><path fill="var(--color2, #2196f3)" d="M14.926 14.965h1.066v4.798h-1.066v-4.798zm4.264 2.132h1.066v2.665H19.19v-2.665zm-8.529 1.599h1.066v1.066h-1.066v-1.066zm-3.198-.533h1.066v1.599H7.463v-1.599z"/><path fill="var(--color1, #212121)" d="M1.599 28.291h25.586a1.6 1.6 0 001.599-1.599V24.56a1.6 1.6 0 00-1.599-1.599h-.533V9.667l3.028-2.868a1.608 1.608 0 10-.742-.752l-.004-.01-2.281 2.162v-1.23a1.6 1.6 0 00-1.599-1.599H3.731a1.6 1.6 0 00-1.599 1.599v15.992h-.533A1.6 1.6 0 000 24.56v2.132a1.6 1.6 0 001.599 1.599zM30.384 4.837a.533.533 0 010 1.066.533.533 0 010-1.066zM3.198 6.969c0-.294.239-.533.533-.533h21.323c.294 0 .533.239.533.533v2.239l-1.066 1.013V8.036a.534.534 0 00-.534-.534H4.798a.534.534 0 00-.534.533v13.327c0 .294.239.533.534.533h19.189a.534.534 0 00.534-.533v-9.675l1.066-1.01V22.96H3.198V6.969zm4.798 6.93h-.005a1.6 1.6 0 101.112 2.748l1.853.93a.535.535 0 00.636-.122l3.939-4.432 3.872 2.902a.534.534 0 00.686-.039l3.365-3.188v8.131H5.331V8.568h18.123v2.661l-3.771 3.572-3.904-2.927a.534.534 0 00-.718.071v.001l-3.993 4.493-1.493-.746c.011-.064.017-.128.02-.193a1.6 1.6 0 00-1.599-1.599zm.533 1.599a.533.533 0 01-1.066 0 .533.533 0 011.066 0zm3.198 8.528h5.33v.533a.533.533 0 01-.533.533h-4.265a.533.533 0 01-.533-.533v-.533zm-10.66.534c0-.294.238-.533.533-.533h9.062v.533a1.6 1.6 0 001.599 1.599h4.265a1.6 1.6 0 001.599-1.599v-.533h9.062c.294 0 .533.239.533.533v2.132a.533.533 0 01-.533.533H1.601a.533.533 0 01-.533-.533V24.56z"/></symbol><symbol id="icon-client1-logo" viewBox="0 0 32 32"><path fill="var(--color3, #afb1b8)" d="M12.988 11.294l1.376 1.302h3.837v3.633l1.376 1.302v-6.237h-6.588z"/><path fill="var(--color3, #afb1b8)" d="M11.859 12.542v6.059h6.4v-2.408l-3.854-3.649-2.546-.002zm5.181 5.172h-4.168v-4.075h.295v3.799h3.873v.276zm-3.338 2.01l.154-.317h.129l-.225.423v.246h-.117v-.246l-.225-.423h.129l.154.317zm.661.196h-.259l-.054.156h-.121l.253-.669h.104l.253.669h-.121l-.055-.156zm-.227-.094h.194l-.097-.278-.097.278zm.685.069c0-.031.008-.059.025-.085s.05-.057.1-.092a.404.404 0 01-.053-.081l-.001-.002a.16.16 0 01-.015-.067c0-.053.016-.094.048-.124s.075-.046.129-.046c.049 0 .088.015.12.043s.047.064.047.106v.001a.144.144 0 01-.022.077v-.001a.252.252 0 01-.069.069l-.001.001-.046.033.129.152a.265.265 0 00.028-.123h.097c0 .082-.019.15-.058.203l.098.116h-.13l-.038-.045a.271.271 0 01-.164.054h-.007a.228.228 0 01-.159-.053.172.172 0 01-.059-.132v-.006zm.221.101a.172.172 0 00.106-.038l-.146-.172-.014.01c-.037.028-.055.06-.055.096 0 .031.01.056.03.075.02.018.046.029.075.029h.006zm-.061-.431c0 .026.016.058.047.097l.051-.035.014-.012a.084.084 0 00.028-.062v-.002-.001a.06.06 0 00-.02-.044.067.067 0 00-.048-.019h-.006a.066.066 0 00-.049.022.082.082 0 00-.019.053v.003zm1.215.293c-.007.071-.033.127-.079.167s-.107.06-.183.06a.247.247 0 01-.234-.145l-.001-.002a.379.379 0 01-.034-.16v-.065c0-.063.011-.119.034-.167s.055-.085.096-.111a.269.269 0 01.145-.039c.074 0 .133.02.178.06s.071.097.078.17h-.116c-.006-.048-.02-.083-.042-.104s-.055-.032-.099-.032c-.05 0-.089.018-.117.056s-.041.091-.041.162v.059c0 .072.013.127.039.165s.064.057.114.057c.046 0 .08-.01.103-.031s.038-.055.044-.102h.116zm.639-.099c0 .066-.011.123-.034.173a.255.255 0 01-.243.154.261.261 0 01-.243-.152l-.001-.002a.393.393 0 01-.035-.163v-.045c0-.065.011-.123.034-.173a.256.256 0 01.243-.154.259.259 0 01.243.153.4.4 0 01.035.172v.037zm-.117-.035a.296.296 0 00-.042-.171.137.137 0 00-.113-.059h-.011a.137.137 0 00-.113.059.284.284 0 00-.043.167v.039c0 .073.014.13.043.171s.069.06.119.06c.052 0 .091-.02.119-.059s.042-.096.042-.172v-.035z"/></symbol><symbol id="icon-client2-logo" viewBox="0 0 32 32"><path fill="var(--color3, #afb1b8)" d="M15.431 11.658h.026c.048 0 .099.005.15.009.247.018.475.053.696.106l-.029-.006v-.539a4.008 4.008 0 00-.688-.11 4.94 4.94 0 00-.271-.013H15.228c-.466.002-.93.062-1.381.178a5.592 5.592 0 00-1.465.596v5.345a5.75 5.75 0 011.355-.535l.041-.009a5.81 5.81 0 011.156-.179l.016-.001h.016c.066-.003.132-.005.2-.006v-.548a6.463 6.463 0 00-1.569.213l.045-.01c-.184.048-.362.1-.53.157l-.191.065v-4.168l.081-.039a5.208 5.208 0 011.965-.504l.014-.001h.018c.076-.004.152-.006.227-.006h.086l.119.004z"/><path fill="var(--color3, #afb1b8)" d="M16.774 12.223h-.005c-.28 0-.554-.024-.821-.069l.029.004a4.098 4.098 0 01-.278-.056l.029.006v5.284c.343.085.695.126 1.048.123a5.623 5.623 0 001.42-.187l-.039.009a5.59 5.59 0 001.492-.61l-.026.014v-5.25a5.793 5.793 0 01-1.355.535l-.041.009a5.923 5.923 0 01-1.452.186zm2.113.091l.191-.064v4.169l-.081.039c-.276.135-.6.255-.938.342l-.036.008a5.087 5.087 0 01-1.246.161c-.126 0-.25-.005-.371-.016l-.13-.011v-4.288l.152.01c.1.007.218.011.336.011h.014-.001a6.456 6.456 0 001.627-.213l-.045.01c.178-.047.354-.1.529-.159zm-6.136 6.738a.28.28 0 00-.202-.086h-.01.001-.004a.3.3 0 00-.12.024l.002-.001a.28.28 0 00-.156.157l-.001.002a.301.301 0 00-.022.118v.714c-.002.05.008.1.028.146a.256.256 0 00.17.147c.036.01.071.015.107.015a.303.303 0 00.296-.301v-.08h-.187v.068a.158.158 0 01-.012.061v-.001a.113.113 0 01-.027.04.125.125 0 01-.078.027l-.011.001a.093.093 0 01-.076-.039.164.164 0 01-.025-.088v-.674a.235.235 0 01.023-.107.097.097 0 01.092-.043h.004a.1.1 0 01.08.04.152.152 0 01.031.092v.066h.185v-.073-.003a.319.319 0 00-.024-.124l.001.002a.298.298 0 00-.063-.101zm1.109-.008a.32.32 0 00-.323-.059.294.294 0 00-.17.156l-.001.002a.327.327 0 00-.027.138v.685a.296.296 0 00.099.236.304.304 0 00.209.08.32.32 0 00.213-.08.293.293 0 00.098-.236v-.685-.006a.331.331 0 00-.028-.134l.001.002a.31.31 0 00-.07-.1zm-.088.923v.011a.122.122 0 01-.038.089.136.136 0 01-.176 0 .123.123 0 01-.038-.088l.001-.011v-.685-.01c0-.035.014-.066.037-.089a.136.136 0 01.176 0 .123.123 0 01.038.088l-.001.011v.685zm1.544.306v-1.297h-.18l-.236.686h-.003l-.238-.686h-.178v1.297h.185v-.789h.003l.181.558h.092l.183-.558h.003v.789h.185zm1.053-1.206a.261.261 0 00-.105-.071.398.398 0 00-.127-.02H15.855v1.297h.185v-.507h.095a.344.344 0 00.167-.035.28.28 0 00.101-.098l.001-.001c.021-.034.036-.073.042-.113s.01-.088.01-.136v-.012.001a.718.718 0 00-.018-.185.276.276 0 00-.068-.119zm-.096.395a.175.175 0 01-.017.069v-.001a.102.102 0 01-.047.045h-.001a.179.179 0 01-.078.017h-.094v-.441h.104c.027 0 .053.006.076.017h-.001a.103.103 0 01.043.047v.001a.18.18 0 01.016.072v.086c0 .03.002.061 0 .089h-.002zm.971-.486h-.151l-.286 1.297h.185l.054-.279h.252l.054.279h.185l-.293-1.297zm-.171.842l.091-.47h.003l.09.47h-.185zm1.365-.061h-.003l-.279-.781h-.177v1.297h.185v-.78h.004l.282.78h.174v-1.297h-.185v.781zm1.129-.781l-.149.516h-.004l-.149-.516h-.196l.254.749v.548h.185v-.548l.254-.749h-.196zm-7.332 1.663h.089v.25h.06v-.25h.088v-.051h-.238v.051zm.749-.051l-.117.301h.064l.025-.069h.12l.026.069h.066l-.12-.301h-.064zm-.009.182l.041-.112.041.112h-.082zm.749.008h.07v.039a.11.11 0 01-.072.025h-.004a.076.076 0 01-.06-.029.125.125 0 01-.022-.072v-.007c0-.067.029-.101.087-.101h.007c.03 0 .055.02.062.048l.059-.011c-.013-.059-.055-.088-.128-.088h-.004a.151.151 0 00-.101.039.148.148 0 00-.044.105v.019c0 .04.015.078.039.106a.148.148 0 00.105.044h.015c.047 0 .09-.018.123-.048v-.119h-.13v.051zm.755-.19h-.061v.301h.211v-.051h-.15v-.25zm.639 0h-.061v.301h.061v-.301zm.625.201l-.123-.201h-.059v.301h.056v-.197l.121.197h.06v-.301h-.056v.201zm.565-.033h.15v-.051h-.15v-.066h.161v-.051h-.222v.301h.229v-.051h-.168v-.081zm1.37-.05h-.119v-.119h-.06v.301h.06v-.132h.119v.132h.06v-.301h-.06v.119zm.568.05h.151v-.051h-.151v-.066h.162v-.051h-.222v.301h.228v-.051h-.168v-.081zm.77 0c.053-.008.079-.036.079-.084l.001-.009a.071.071 0 00-.03-.058.174.174 0 00-.076-.018h-.012.001-.128v.301h.06v-.126h.017c.012 0 .023.003.033.007a.056.056 0 01.021.022l.066.096h.072l-.037-.059a.218.218 0 00-.066-.072h-.001zm-.061-.041h-.045v-.075h.048l.013-.001c.017 0 .034.003.05.008h-.001a.045.045 0 01.01.014c.002.005.003.01.003.016v.001a.043.043 0 01-.016.03.16.16 0 01-.05.007h-.012.001zm.642.041h.15v-.051h-.15v-.066h.162v-.051h-.223v.301h.229v-.051h-.168v-.081z"/></symbol><symbol id="icon-client3-logo" viewBox="0 0 32 32"><path fill="var(--color3, #afb1b8)" d="M13.43 19.914c.006 0 .011.003.015.006l.039.041a.313.313 0 01-.109.077.386.386 0 01-.154.028h-.008a.364.364 0 01-.14-.027l.003.001a.313.313 0 01-.179-.183l-.001-.002a.386.386 0 01-.024-.139v-.006-.006c0-.05.01-.098.027-.142l-.001.003a.318.318 0 01.191-.185.421.421 0 01.288-.002.387.387 0 01.104.065l-.033.043a.03.03 0 01-.008.008.02.02 0 01-.011.003h-.002a.024.024 0 01-.014-.005l-.018-.011-.024-.015a.256.256 0 00-.075-.026h-.002a.29.29 0 00-.053-.005H13.232a.29.29 0 00-.106.02l.002-.001a.232.232 0 00-.084.055.257.257 0 00-.055.087.33.33 0 000 .23.25.25 0 00.054.086c.022.024.05.042.08.053a.301.301 0 00.159.015.22.22 0 00.128-.06.037.037 0 01.018-.008zm1.118-.204a.375.375 0 01-.026.144.307.307 0 01-.073.111.331.331 0 01-.112.072l-.002.001a.432.432 0 01-.297-.001l.003.001a.338.338 0 01-.114-.073.341.341 0 01-.073-.11l-.001-.002a.412.412 0 01.001-.29l-.001.003a.333.333 0 01.073-.113.342.342 0 01.112-.07l.002-.001a.438.438 0 01.297.001l-.003-.001a.325.325 0 01.187.184.375.375 0 01.026.144zm-.101 0v-.006a.336.336 0 00-.019-.111l.001.002a.226.226 0 00-.132-.14l-.002-.001a.308.308 0 00-.216.001l.002-.001a.233.233 0 00-.134.139v.002a.38.38 0 000 .231.229.229 0 00.132.14l.002.001a.315.315 0 00.214 0 .226.226 0 00.134-.14.322.322 0 00.018-.115zm.864.121l.01.026.011-.026.013-.027-.001.001.247-.428c.005-.008.009-.012.014-.013l.017-.002h.077v.697h-.087v-.534-.012-.013.001l-.249.435a.036.036 0 01-.014.016.037.037 0 01-.021.006h-.015c-.008 0-.015-.002-.021-.006s-.011-.009-.015-.016l-.256-.437v.56h-.084v-.696h.077l.017.002c.006.003.011.007.013.013l.253.429a.09.09 0 01.012.024v.001zm.931-.034v.261h-.097v-.696h.224c.04 0 .079.006.115.016l-.003-.001c.031.008.06.023.085.043a.18.18 0 01.048.068.228.228 0 01-.001.178.18.18 0 01-.052.069.254.254 0 01-.084.046h-.002a.385.385 0 01-.117.016l-.117-.002zm0-.075h.117a.235.235 0 00.075-.011.135.135 0 00.087-.075v-.001a.149.149 0 00.012-.057v-.002-.007a.135.135 0 00-.01-.05v.001a.127.127 0 00-.034-.048.192.192 0 00-.116-.038l-.015.001h.001-.117v.287zm1.302.337h-.076-.001a.036.036 0 01-.02-.006.038.038 0 01-.012-.016l-.066-.168h-.331l-.068.168a.048.048 0 01-.012.016.038.038 0 01-.021.007h-.077l.29-.697h.101l.294.697zm-.48-.259h.273l-.115-.284a.45.45 0 01-.021-.062l-.001-.003-.011.037-.011.032.001-.002-.114.283zm.898-.435a.047.047 0 01.015.013l.424.525v-.541h.087v.697h-.048-.001c-.007 0-.013-.002-.019-.004a.047.047 0 01-.015-.013l-.423-.525v.542h-.087v-.697h.051c.006 0 .012.001.017.003zm1.239.416v.277h-.097v-.277l-.268-.42h.089a.03.03 0 01.019.006c.005.004.009.01.013.016l.168.271c.007.011.013.022.017.032l.012.029.013-.03c.005-.011.01-.022.017-.032l.165-.273a.064.064 0 01.013-.015.032.032 0 01.019-.007h.09l-.268.422zm-3.938-1.589l.128.013c.653-.279 1.206-.734 1.589-1.31s.579-1.247.564-1.929l-.72-.686a3.787 3.787 0 01-.207 2.192l.009-.025a4.01 4.01 0 01-1.363 1.745z"/><path fill="var(--color3, #afb1b8)" d="M15.006 18.16l.019.004a3.88 3.88 0 001.44-1.797 3.7 3.7 0 00.128-2.282l.006.026-1.025-.977c.321.606.509 1.325.509 2.088 0 .178-.01.353-.03.525l.002-.021c-.1.89-.464 1.734-1.048 2.435zm3.478-2.389a3.53 3.53 0 01-1.207 1.926c-.168.14-.356.27-.554.382l-.019.01a3.428 3.428 0 001.337-.721l-.004.003c.371-.324.664-.727.855-1.183l.008-.021-.416-.396z"/><path fill="var(--color3, #afb1b8)" d="M18.321 15.661l-.592-.564a3.462 3.462 0 01-.564 1.834l.008-.013a3.712 3.712 0 01-1.449 1.299h.003c.133 0 .265-.008.397-.023a3.658 3.658 0 001.429-.999l.004-.004a3.39 3.39 0 00.76-1.507l.004-.023zm-3.229-2.94l-.706-.674c-.632.232-1.175.641-1.558 1.173s-.59 1.161-.592 1.806c.002.713.254 1.404.715 1.965s1.106.959 1.832 1.132c.648-.752 1.027-1.681 1.083-2.653s-.215-1.934-.774-2.749zm4.861 2.836c-.002-.846-.356-1.656-.984-2.254s-1.478-.935-2.366-.937c-.41 0-.817.072-1.199.213l4.325 4.12a2.98 2.98 0 00.224-1.141v-.001z"/></symbol><symbol id="icon-client4-logo" viewBox="0 0 32 32"><path fill="var(--color2, #2196f3)" d="M10.805 14.462a.762.762 0 00-.771.751v.001a.76.76 0 00.771.751.762.762 0 00.771-.751v-.001a.76.76 0 00-.771-.751zm5.691-.24c-.001-.576-.237-1.129-.655-1.536s-.985-.637-1.576-.639c-.592.001-1.159.231-1.577.638s-.654.96-.655 1.537v3.179s4.463-.484 4.464-3.178v-.001zm-8.025 4.222c.002.42.176.798.456 1.069a1.573 1.573 0 002.194 0c.28-.271.454-.649.456-1.068v-2.212s-3.105.338-3.105 2.211zm1.553.396h-.001a.41.41 0 01-.227-.068l.002.001a.401.401 0 01-.149-.175l-.001-.003a.375.375 0 01-.023-.232v.003a.398.398 0 01.111-.203.415.415 0 01.206-.108h.003a.41.41 0 01.418.169.386.386 0 01.037.375l.001-.003a.39.39 0 01-.22.215.413.413 0 01-.156.03v-.002zm3.169-.246h-.318v.328h-.166v-.803h.523v.134h-.357v.207h.318v.134zm.796-.055c0 .079-.014.148-.042.208a.318.318 0 01-.293.187h-.007a.319.319 0 01-.298-.183l-.001-.002a.461.461 0 01-.044-.199v-.047c0-.079.014-.149.043-.209a.32.32 0 01.3-.187.324.324 0 01.299.187c.029.06.043.129.043.208v.036zm-.168-.036a.34.34 0 00-.045-.192.148.148 0 00-.123-.066H13.64a.148.148 0 00-.122.065v.001a.339.339 0 00-.046.19v.039c0 .082.015.146.045.191s.073.068.13.068h.007c.05 0 .095-.026.121-.065v-.001a.337.337 0 00.045-.191v-.039zm.704.209v-.005a.086.086 0 00-.033-.067.412.412 0 00-.119-.053.829.829 0 01-.141-.057l.005.002c-.091-.049-.137-.116-.137-.199 0-.043.012-.082.036-.116s.06-.061.105-.08a.399.399 0 01.307.002.238.238 0 01.142.217h-.166c0-.037-.011-.065-.035-.085s-.056-.031-.098-.031a.152.152 0 00-.094.026.08.08 0 00-.034.065v.002c0 .026.013.048.039.066s.065.034.116.05c.094.028.163.063.206.105s.064.094.064.156c0 .07-.026.124-.079.164s-.123.059-.212.059a.405.405 0 01-.169-.034.271.271 0 01-.116-.092l-.001-.001a.236.236 0 01-.04-.132v-.005h.166c0 .088.053.133.159.133.04 0 .07-.008.092-.024a.079.079 0 00.033-.064v-.003zm.883-.459h-.246v.669h-.165v-.669h-.243v-.134h.654v.134zm.578.321h-.318v.215h.373v.133h-.538v-.803h.537v.134h-.372v.191h.318v.13zm.449.054h-.132v.294h-.166v-.803h.299c.095 0 .168.021.219.063s.077.102.077.179a.243.243 0 01-.036.137.24.24 0 01-.106.086l-.002.001.174.328v.008h-.177l-.151-.294zm-.131-.134h.133a.145.145 0 00.097-.031.116.116 0 00.034-.082v-.006c0-.038-.011-.068-.033-.089s-.054-.033-.099-.033h-.133v.241zm1.002.145v.283h-.165v-.803h.313c.06 0 .113.011.159.033s.081.053.106.094c.025.04.037.087.037.139 0 .079-.027.141-.081.186s-.128.068-.223.068h-.145zm0-.134h.148c.044 0 .077-.01.1-.031s.035-.05.035-.088v-.006a.131.131 0 00-.035-.09.132.132 0 00-.096-.038h-.152v.252zm1.047.069h-.318v.215h.373v.133h-.538v-.803h.537v.134h-.372v.191h.318v.13zm.768-.321h-.246v.669h-.165v-.669h-.243v-.134h.654v.134zm.577.321h-.318v.215h.373v.133h-.538v-.803h.537v.134h-.372v.191h.318v.13zm.45.054h-.132v.294h-.165v-.803h.298c.095 0 .168.021.219.063s.077.102.077.179a.243.243 0 01-.036.137.24.24 0 01-.106.086l-.002.001.174.328v.008h-.178l-.15-.294zm-.132-.134h.133a.143.143 0 00.097-.031.116.116 0 00.034-.082v-.006c0-.038-.011-.068-.033-.089s-.054-.033-.099-.033h-.133v.241zm.972.218v-.005a.086.086 0 00-.033-.067.412.412 0 00-.119-.053.829.829 0 01-.141-.057l.005.002c-.091-.049-.137-.116-.137-.199 0-.043.012-.082.036-.116s.06-.061.105-.08a.399.399 0 01.154-.029h.006c.053 0 .104.012.149.032l-.002-.001c.045.021.08.05.104.088s.037.081.037.129h-.165c0-.037-.011-.065-.035-.085s-.056-.031-.098-.031a.152.152 0 00-.094.026.081.081 0 00-.034.065v.002c0 .026.013.048.039.066s.065.034.116.05c.094.028.163.063.206.105s.064.094.064.156c0 .07-.026.124-.079.164s-.123.059-.212.059h-.005a.402.402 0 01-.166-.035l.003.001a.271.271 0 01-.116-.092l-.001-.001a.236.236 0 01-.04-.132v-.005h.166c0 .088.053.133.159.133.039 0 .07-.008.092-.024a.079.079 0 00.033-.064v-.003z"/></symbol><symbol id="icon-client5-logo" viewBox="0 0 32 32"><path fill="var(--color3, #afb1b8)" d="M11.386 19.064a.298.298 0 01.065.19v.015c0 .09-.039.17-.101.226a.435.435 0 01-.293.088h-.516v-1.206h.505l.028-.001c.094 0 .182.03.253.082l-.001-.001c.06.051.098.126.098.211v.015-.001a.27.27 0 01-.213.278c.069.013.13.049.174.103zm-.605-.182h.216a.203.203 0 00.137-.04.142.142 0 00.047-.106l-.001-.013V18.714a.149.149 0 00-.046-.107.203.203 0 00-.142-.04h.001-.212v.316zm.374.462a.148.148 0 00.051-.113v-.01-.009a.152.152 0 00-.052-.115.226.226 0 00-.133-.044h-.015.001-.226v.331h.229a.227.227 0 00.145-.042zm1.263.238l-.281-.471h-.106v.471h-.242v-1.206h.457l.031-.001c.11 0 .21.039.288.104l-.001-.001a.382.382 0 01.033.5l.001-.001a.366.366 0 01-.218.122l.299.482h-.263zm-.386-.635h.198c.137 0 .206-.061.206-.183v-.01a.175.175 0 00-.051-.125.213.213 0 00-.137-.05l-.019.001h.001-.2l.002.367zm1.707.393h-.482l-.085.243h-.253l.442-1.192h.274l.44 1.192h-.253l-.083-.243zm-.064-.183l-.176-.509-.176.509h.352zm1.718.425h-.24l-.538-.82v.82h-.239v-1.206h.239l.538.824v-.824h.24v1.206zm1.369-.288a.524.524 0 01-.214.211l-.003.001a.703.703 0 01-.337.076h-.427v-1.206h.446c.116 0 .226.028.323.076l-.004-.002c.092.046.168.12.217.21a.698.698 0 01-.002.636l.002-.004zm-.274-.029a.442.442 0 00-.001-.576v.001a.415.415 0 00-.274-.103l-.027.001h.001-.167v.78h.167a.415.415 0 00.301-.103zm-2.598-7.594s3.097 1.174 3.031 2.872v2.873s-3.094-1.175-3.03-2.873l-.001-2.872zm5.789 5.073a4.182 4.182 0 011.949-.726l.019-.002v-.899a4.071 4.071 0 00-1.958 1.611l-.01.017z"/><path fill="var(--color3, #afb1b8)" d="M19.328 17.014a4.236 4.236 0 012.29-2.077l.029-.01v-2.591s-4.41 1.672-4.317 4.091v4.091s.197-.075.506-.215c0-.131 0-.263.014-.395a4.253 4.253 0 011.473-2.888l.006-.005z"/><path fill="var(--color3, #afb1b8)" d="M18.909 18.534c.023-.284.075-.564.154-.838a3.943 3.943 0 00-.934 2.466v.004c.359-.173.637-.322.908-.481l-.06.033a4.11 4.11 0 01-.068-1.2l-.001.016zm.175.015a4.11 4.11 0 00.058 1.098l-.004-.025c1.205-.724 2.559-1.842 2.507-3.194v-.118a3.945 3.945 0 00-2.294 1.077l.001-.001a3.939 3.939 0 00-.268 1.149l-.001.014z"/></symbol><symbol id="icon-client6-logo" viewBox="0 0 32 32"><path fill="var(--color3, #afb1b8)" d="M16.139 15.69a.607.607 0 01-.109-.348l.001-.041v.002-.562c0-.172.036-.303.107-.392s.194-.134.367-.134c.163 0 .279.038.347.114a.488.488 0 01.102.336v.132h-.291v-.134-.017a.772.772 0 00-.009-.118l.001.004a.138.138 0 00-.041-.078.157.157 0 00-.093-.031l-.013.001h.001-.012a.162.162 0 00-.099.033.151.151 0 00-.048.085v.001a.718.718 0 00-.011.139v.681a.372.372 0 00.037.191.15.15 0 00.057.046h.001a.137.137 0 00.058.012l.018-.001h-.001.012a.149.149 0 00.092-.032.14.14 0 00.043-.082v-.001a.777.777 0 00.009-.136v-.138h.291v.126l.001.035c0 .119-.038.23-.103.32l.001-.002c-.067.083-.181.125-.349.125s-.294-.044-.366-.137zm1.214.006c-.074-.088-.11-.215-.11-.383v-.591c0-.167.037-.293.11-.379s.197-.128.369-.128c.171 0 .294.043.367.128s.111.212.111.379v.591c0 .167-.038.295-.112.383s-.197.132-.366.132c-.169 0-.295-.044-.369-.131zm.505-.142a.366.366 0 00.035-.175v-.723l.001-.019a.349.349 0 00-.036-.154l.001.002a.136.136 0 00-.059-.047h-.001a.148.148 0 00-.057-.011l-.021.001h.001l-.02-.001a.14.14 0 00-.058.012h.001a.136.136 0 00-.059.047.328.328 0 00-.035.171v.726c-.004.06.008.12.035.175a.184.184 0 00.06.043h.001a.191.191 0 00.151-.001h-.001a.178.178 0 00.061-.043v-.003zm.693-1.322h.314l.236 1.09.241-1.09h.305l.031 1.573h-.226l-.024-1.093-.233 1.093h-.181l-.241-1.097-.022 1.097h-.228l.028-1.573zm1.478 0h.489c.282 0 .422.149.422.447 0 .285-.148.427-.445.427h-.166v.699h-.302l.002-1.573zm.418.673a.214.214 0 00.166-.05.267.267 0 00.043-.178v-.018a.501.501 0 00-.016-.129l.001.004a.123.123 0 00-.059-.074h-.001a.288.288 0 00-.119-.025h-.017.001-.117v.47h.117zm.928-.673h.324l.332 1.573h-.281l-.066-.363h-.289l-.068.363h-.285l.332-1.573zm.277 1.029l-.113-.66-.113.66h.226zm.648-1.029h.211l.404.897v-.897h.25v1.573h-.201l-.407-.937v.937h-.259l.001-1.573zm1.452.974l-.336-.971h.283l.205.624.193-.624h.277l-.332.971v.6h-.29v-.6zm-7.147 1.287v.082h-.246v.639h-.103v-.639h-.247v-.082h.597zm.772.721h-.082a.032.032 0 01-.02-.007.04.04 0 01-.013-.016l-.071-.171h-.341l-.071.171a.04.04 0 01-.011.019.038.038 0 01-.021.007h-.082l.302-.721h.105l.305.718zm-.5-.268h.285l-.12-.294c-.008-.018-.015-.041-.022-.064l-.001-.004-.011.038-.011.03-.12.293zm1.02.198a.523.523 0 00.056 0 .34.34 0 00.094-.023l-.002.001a.352.352 0 00.04-.018v-.162h-.121-.001a.02.02 0 01-.015-.006.016.016 0 01-.006-.013v-.056h.234v.277a.44.44 0 01-.124.058l-.003.001a.47.47 0 01-.073.015h-.002a.77.77 0 01-.087.005h-.004a.427.427 0 01-.152-.028l.003.001a.345.345 0 01-.198-.187l-.001-.002a.375.375 0 01-.028-.145v-.005-.005c0-.052.01-.103.028-.149l-.001.003c.017-.043.044-.082.078-.114s.075-.058.121-.075a.496.496 0 01.318-.003c.021.008.041.017.06.029s.036.024.053.038l-.029.045c-.002.004-.006.007-.01.01a.033.033 0 01-.014.004.033.033 0 01-.019-.006.284.284 0 01-.031-.018l.001.001a.202.202 0 00-.039-.019l-.002-.001a.333.333 0 00-.053-.016h-.002a.411.411 0 00-.072-.006h-.008a.317.317 0 00-.115.021l.002-.001a.257.257 0 00-.089.057.248.248 0 00-.056.09.355.355 0 00.001.243l-.001-.003a.262.262 0 00.148.148.322.322 0 00.12.014zm.961-.012h.329v.082h-.43v-.721h.103l-.002.639zm.673.082h-.103v-.721h.103v.721zm.383-.718c.006.003.011.008.016.013l.441.544v-.013-.014.001-.537h.09v.724H20.405c-.007 0-.013-.002-.019-.004a.054.054 0 01-.016-.014l-.44-.543v.561h-.086v-.721h.054c.006 0 .012.001.017.003zm1.306-.003v.079h-.366v.238h.296v.076h-.296v.246h.366v.079h-.472v-.72h.472zm-10.81-4.455l4.581 1.231v4.315l-4.581-1.23v-4.315zm-.294-.367v4.893l5.168 1.39v-4.892l-5.168-1.39z"/><path fill="var(--color3, #afb1b8)" d="M12.886 20.224l-5.168-1.391v-4.892l5.168 1.39v4.893z"/><path fill="var(--color3, #afb1b8)" d="M10.202 11.983l4.521 1.216-1.923 1.82-4.521-1.216 1.923-1.82zm-.086-.312l-2.399 2.271 5.168 1.39 2.398-2.271-5.168-1.39zm3.061 8.278l2.107-1.995-2.107-.567v2.562z"/></symbol><symbol id="icon-ellipse" viewBox="0 0 32 32"><path fill="var(--color4, #fff)" opacity=".1" d="M32 16v.02a15.9 15.9 0 01-4.686 11.293A15.902 15.902 0 0116.021 32H16h.001-.02a15.9 15.9 0 01-11.293-4.686A15.902 15.902 0 01.001 16.021V16v-.019A15.9 15.9 0 014.687 4.688 15.902 15.902 0 0115.98.001h.021H16h.02a15.9 15.9 0 0111.293 4.686A15.902 15.902 0 0132 15.98v.021V16z"/><path fill="var(--color4, #fff)" d="M23.258 13.004c-.033-.773-.159-1.304-.337-1.764a3.57 3.57 0 00-.841-1.29l-.001-.001a3.583 3.583 0 00-1.263-.83l-.024-.008c-.463-.179-.991-.304-1.764-.337-.778-.037-1.025-.046-3.001-.046s-2.222.009-2.998.043c-.773.033-1.304.159-1.764.338a3.58 3.58 0 00-1.29.84l-.001.001c-.36.354-.645.784-.83 1.263l-.008.024c-.18.463-.304.991-.338 1.764-.037.778-.046 1.025-.046 3.001s.009 2.222.043 2.998c.034.773.159 1.304.338 1.764.194.505.48.935.84 1.29h.001c.364.369.804.656 1.287.838.463.18.992.305 1.764.338.776.034 1.023.043 2.998.043s2.222-.009 2.998-.043c.773-.033 1.304-.159 1.764-.337a3.741 3.741 0 002.12-2.104l.009-.025c.179-.463.304-.992.338-1.764.034-.776.042-1.023.042-2.998s-.003-2.222-.036-2.998zm-1.309 5.939c-.032.711-.151 1.094-.25 1.349a2.428 2.428 0 01-1.365 1.376l-.016.006c-.255.099-.641.218-1.349.249-.767.034-.997.043-2.938.043s-2.174-.009-2.938-.043c-.711-.031-1.094-.151-1.35-.25a2.237 2.237 0 01-.834-.542l-.001-.001a2.268 2.268 0 01-.538-.819l-.005-.016c-.099-.256-.218-.642-.249-1.35-.034-.767-.043-.998-.043-2.938s.009-2.175.043-2.938c.031-.711.151-1.094.249-1.35.122-.328.308-.608.545-.835l.001-.001c.229-.235.509-.42.821-.537l.016-.005c.255-.099.641-.218 1.349-.25.767-.033.998-.042 2.938-.042 1.943 0 2.174.008 2.938.042.711.031 1.094.151 1.35.25.315.116.602.301.835.543.241.236.426.52.543.836.099.255.218.641.249 1.349.034.767.043.997.043 2.938s-.009 2.167-.043 2.935z"/><path fill="var(--color4, #fff)" d="M16.027 12.265h-.001a3.737 3.737 0 103.737 3.737v-.001a3.737 3.737 0 00-3.737-3.737zm0 6.16a2.424 2.424 0 110-4.848 2.424 2.424 0 110 4.848zm4.757-6.308a.873.873 0 01-1.746 0 .873.873 0 011.746 0z"/></symbol><symbol id="icon-ellipse1" viewBox="0 0 32 32"><path fill="var(--color2, #2196f3)" d="M32 16v.02a15.9 15.9 0 01-4.686 11.293A15.902 15.902 0 0116.021 32H16h.001-.02a15.9 15.9 0 01-11.293-4.686A15.902 15.902 0 01.001 16.021V16v-.019A15.9 15.9 0 014.687 4.688 15.902 15.902 0 0115.98.001h.021H16h.02a15.9 15.9 0 0111.293 4.686A15.902 15.902 0 0132 15.98v.021V16z"/><path fill="var(--color4, #fff)" d="M23.273 11.49c-.5.224-1.08.39-1.688.467l-.031.003a2.98 2.98 0 001.306-1.627l.006-.021a5.851 5.851 0 01-1.853.715l-.038.006a2.981 2.981 0 00-5.158 2.036v.003c0 .236.02.464.07.68a8.443 8.443 0 01-6.147-3.119 2.984 2.984 0 00.917 3.986 2.937 2.937 0 01-1.362-.375l.015.008v.033a2.995 2.995 0 002.37 2.927l.02.003a2.906 2.906 0 01-.756.098h-.028.001-.047c-.183 0-.362-.019-.534-.054l.017.003a3.012 3.012 0 002.786 2.078 5.948 5.948 0 01-3.69 1.271h-.047c-.238 0-.472-.015-.701-.044l.027.003a8.317 8.317 0 004.547 1.338h.029-.002c5.487 0 8.487-4.545 8.487-8.486 0-.131-.004-.259-.011-.385a5.978 5.978 0 001.481-1.526l.014-.021z"/></symbol><symbol id="icon-ellipse2" viewBox="0 0 32 32"><path fill="var(--color4, #fff)" opacity=".1" d="M32 16v.02a15.9 15.9 0 01-4.686 11.293A15.902 15.902 0 0116.021 32H16h.001-.02a15.9 15.9 0 01-11.293-4.686A15.902 15.902 0 01.001 16.021V16v-.019A15.9 15.9 0 014.687 4.688 15.902 15.902 0 0115.98.001h.021H16h.02a15.9 15.9 0 0111.293 4.686A15.902 15.902 0 0132 15.98v.021V16z"/><path fill="var(--color4, #fff)" d="M18.422 11.142h1.329V8.829c-.56-.065-1.21-.102-1.867-.102h-.071.004c-1.915 0-3.226 1.204-3.226 3.418v2.036h-2.113v2.585h2.113v6.505h2.59v-6.505h2.028l.321-2.585h-2.349v-1.782c0-.747.201-1.258 1.243-1.258z"/></symbol><symbol id="icon-ellipse3" viewBox="0 0 32 32"><path fill="var(--color4, #fff)" opacity=".1" d="M32 16v.02a15.9 15.9 0 01-4.686 11.293A15.902 15.902 0 0116.021 32H16h.001-.02a15.9 15.9 0 01-11.293-4.686A15.902 15.902 0 01.001 16.021V16v-.019A15.9 15.9 0 014.687 4.688 15.902 15.902 0 0115.98.001h.021H16h.02a15.9 15.9 0 0111.293 4.686A15.902 15.902 0 0132 15.98v.021V16z"/><path fill="var(--color4, #fff)" d="M23.269 23.273h.004v-5.335c0-2.609-.561-4.62-3.612-4.62-1.467 0-2.451.804-2.853 1.567h-.042v-1.324h-2.893v9.711h3.012v-4.808c0-1.266.24-2.491 1.808-2.491 1.545 0 1.568 1.445 1.568 2.572v4.728h3.009zM8.967 13.562h3.016v9.711H8.967v-9.711zm1.507-4.835c-.965 0-1.747.782-1.747 1.747 0 .964.783 1.763 1.747 1.763s1.746-.799 1.746-1.763c0-.964-.782-1.746-1.746-1.747z"/></symbol><symbol id="icon-envelope" viewBox="0 0 32 32"><path  d="M29 4H3C1.346 4 0 5.256 0 6.8v16.804c0 1.544 1.346 2.8 3 2.8h26c1.654 0 3-1.256 3-2.8V6.8C32 5.256 30.654 4 29 4zm0 1.866c.136 0 .266.028.384.074L16 16.768 2.616 5.94c.114-.046.246-.073.384-.074h26zm0 18.67H3c-.552 0-1-.418-1-.932V7.912l13.344 10.796c.176.142.403.228.65.228h.012c.247 0 .474-.086.652-.23l-.002.002L30 7.912v15.692c0 .514-.448.932-1 .932z"/></symbol><symbol id="icon-faceb" viewBox="0 0 32 32"><path  d="M21.328 5.312h2.923V.224A36.478 36.478 0 0020.144 0h-.157.008c-4.213 0-7.099 2.65-7.099 7.52V12H8.25v5.688h4.646V32h5.698V17.69h4.461l.707-5.688h-5.168V8.08c0-1.643.443-2.768 2.734-2.768z"/></symbol><symbol id="icon-insta" viewBox="0 0 32 32"><path  d="M31.968 9.408c-.074-1.701-.349-2.869-.742-3.882a7.839 7.839 0 00-1.85-2.837l-.001-.001A7.906 7.906 0 0026.597.861l-.054-.018C25.524.449 24.362.176 22.661.101 20.949.019 20.405 0 16.059 0c-4.344 0-4.888.019-6.595.094-1.699.074-2.869.349-3.88.742a7.847 7.847 0 00-2.839 1.85l-.001.001A7.9 7.9 0 00.919 5.465l-.018.054C.506 6.538.232 7.7.157 9.401c-.082 1.712-.101 2.256-.101 6.602 0 4.344.019 4.888.094 6.595.075 1.701.35 2.869.744 3.882a7.915 7.915 0 001.849 2.837l.001.001c.8.813 1.77 1.443 2.832 1.843 1.019.395 2.182.67 3.882.744 1.707.075 2.251.094 6.595.094 4.346 0 4.89-.019 6.595-.094 1.701-.074 2.869-.349 3.882-.742a8.237 8.237 0 004.664-4.628l.019-.055c.394-1.019.669-2.182.744-3.882.075-1.707.093-2.251.093-6.595s-.006-4.888-.08-6.595zm-2.88 13.066c-.07 1.563-.333 2.406-.55 2.97a5.341 5.341 0 01-3.004 3.024l-.036.012c-.56.219-1.411.482-2.968.55-1.688.075-2.194.094-6.464.094-4.269 0-4.782-.019-6.464-.094-1.563-.069-2.406-.331-2.97-.55a4.953 4.953 0 01-1.836-1.192l-.001-.001a4.978 4.978 0 01-1.184-1.803L3.6 25.45c-.218-.563-.48-1.413-.549-2.97-.075-1.688-.094-2.195-.094-6.464 0-4.27.019-4.784.094-6.464.069-1.563.331-2.406.549-2.97a4.897 4.897 0 011.198-1.837l.002-.002a4.972 4.972 0 011.806-1.182l.034-.011c.56-.219 1.411-.48 2.968-.55 1.688-.074 2.195-.093 6.464-.093 4.275 0 4.782.019 6.464.093 1.563.069 2.406.331 2.97.55a4.91 4.91 0 011.837 1.194c.531.52.938 1.144 1.195 1.84.218.56.48 1.411.549 2.968.075 1.688.094 2.194.094 6.464 0 4.269-.019 4.768-.094 6.458z"/><path  d="M16.059 7.782a8.223 8.223 0 00-8.219 8.221v.002a8.222 8.222 0 1016.444 0 8.222 8.222 0 00-8.222-8.222h-.002zm0 13.552a5.333 5.333 0 01.001-10.666h.001a5.334 5.334 0 110 10.668zM26.525 7.458a1.92 1.92 0 01-3.84 0 1.92 1.92 0 013.84 0z"/></symbol><symbol id="icon-linkedin" viewBox="0 0 32 32"><path  d="M31.992 32H32V20.262c0-5.741-1.235-10.163-7.947-10.163-3.227 0-5.392 1.77-6.277 3.45h-.093v-2.914h-6.365v21.363h6.627V21.42c0-2.786.528-5.48 3.978-5.48 3.398 0 3.45 3.179 3.45 5.658V32h6.619zM.528 10.635h6.635V32H.528V10.635zM3.843 0A3.843 3.843 0 000 3.843c0 2.12 1.722 3.878 3.843 3.878 2.12 0 3.842-1.757 3.842-3.878S5.965.002 3.844 0z"/></symbol><symbol id="icon-smartphone" viewBox="0 0 32 32"><path  d="M23.467 0H8.534c-1.764 0-3.2 1.34-3.2 2.987v25.89c0 1.647 1.436 2.987 3.2 2.987h14.933c1.764 0 3.2-1.34 3.2-2.987V2.987c0-1.647-1.436-2.987-3.2-2.987zM8.533 1.99h14.933c.589 0 1.067.448 1.067.996v20.911H7.466V2.986c0-.548.478-.996 1.067-.996zm14.934 27.883H8.534c-.589 0-1.067-.448-1.067-.996V25.89h17.067v2.987c0 .548-.478.994-1.067.994z"/><path  d="M10.355 27.177a.947.947 0 010 1.407l-.001.001c-.198.182-.464.293-.755.293s-.557-.111-.756-.294l.001.001a.947.947 0 010-1.407l.001-.001c.198-.182.464-.293.755-.293s.557.111.756.294l-.001-.001z"/></symbol><symbol id="icon-twitt" viewBox="0 0 32 32"><path  d="M32 6.078c-1.1.493-2.376.857-3.713 1.028l-.068.007a6.556 6.556 0 002.873-3.579l.013-.046a12.88 12.88 0 01-4.076 1.573l-.084.014A6.558 6.558 0 0015.6 9.557v.004c0 .52.043 1.021.152 1.496-5.454-.266-10.28-2.88-13.522-6.861a6.524 6.524 0 00-.902 3.313v.001a6.57 6.57 0 002.914 5.451 6.453 6.453 0 01-2.994-.823l.033.017v.072a6.592 6.592 0 005.213 6.44l.043.008a6.403 6.403 0 01-1.662.215h-.061.003c-.419 0-.843-.024-1.242-.112.85 2.598 3.261 4.509 6.13 4.57a13.093 13.093 0 01-8.122 2.8H1.57h.001-.062c-.531 0-1.055-.034-1.569-.099l.061.006c2.826 1.846 6.287 2.944 10.004 2.944h.063-.003c12.072 0 18.672-10 18.672-18.669 0-.288-.01-.57-.024-.848a13.203 13.203 0 003.258-3.355l.03-.047z"/></symbol><symbol id="icon-logo1" viewBox="0 0 29 32"><path  d="M3.84 0l4.677 4.428h13.046v12.351l4.677 4.428V.001H3.84z"/><path  d="M0 4.241v20.6h21.76v-8.188L8.655 4.246 0 4.241zm17.615 17.587H3.443V7.973h1.002V20.89h13.17v.938zM6.266 28.662l.524-1.078h.438l-.764 1.437v.838h-.397v-.838l-.764-1.437h.439l.524 1.078zm2.247.667h-.881l-.184.53h-.411l.859-2.275h.355l.861 2.275h-.413l-.186-.53zm-.77-.319h.659l-.33-.944-.33.944zm2.328.234c0-.105.029-.202.086-.289.058-.089.17-.193.339-.314a1.498 1.498 0 01-.182-.276l-.004-.008a.568.568 0 01-.052-.226c0-.179.054-.319.163-.422s.254-.156.437-.156a.57.57 0 01.406.147c.106.097.16.218.16.361v.003a.497.497 0 01-.074.262l.001-.002a.858.858 0 01-.233.236l-.003.002-.155.113.44.518a.914.914 0 00.095-.417h.33c0 .28-.065.509-.196.689l.334.396h-.44l-.128-.152a.93.93 0 01-.558.183h-.025.001c-.225 0-.405-.06-.54-.179a.597.597 0 01-.202-.447v-.021.001zm.753.343a.58.58 0 00.359-.128l-.497-.586-.049.035c-.125.095-.188.203-.188.325 0 .105.034.191.102.256a.375.375 0 00.254.099h.019-.001zm-.21-1.466c0 .088.054.197.161.33l.173-.118.049-.039a.283.283 0 00.097-.212v-.009-.002a.2.2 0 00-.067-.149.233.233 0 00-.162-.064h-.019a.224.224 0 00-.167.075.276.276 0 00-.066.179v.01zm4.134.997c-.023.243-.113.432-.269.568s-.364.204-.623.204a.902.902 0 01-.48-.128.86.86 0 01-.317-.362l-.002-.005a1.302 1.302 0 01-.117-.544v-.22c0-.214.038-.403.114-.567a.871.871 0 01.326-.378.913.913 0 01.494-.133c.251 0 .453.068.606.205s.243.329.268.578h-.394c-.019-.163-.067-.281-.144-.353-.076-.073-.188-.109-.336-.109a.464.464 0 00-.397.189c-.092.125-.138.309-.141.552v.202c0 .246.044.433.132.563s.218.194.387.194c.155 0 .272-.035.35-.105s.128-.186.148-.348h.394zm2.17-.338c0 .223-.038.419-.115.588a.88.88 0 01-.332.388.905.905 0 01-.494.134.92.92 0 01-.493-.134.897.897 0 01-.332-.38l-.002-.006a1.335 1.335 0 01-.119-.555v-.023.001-.128c0-.222.038-.418.117-.588s.19-.3.333-.389c.144-.091.308-.136.493-.136s.35.045.493.134c.143.089.255.217.333.384s.118.362.118.584v.126zm-.396-.118c0-.252-.048-.445-.143-.58a.465.465 0 00-.384-.202l-.022.001h.001-.016a.468.468 0 00-.384.2l-.001.002c-.096.133-.145.323-.147.567v.131c0 .25.049.444.146.58s.233.205.406.205c.175 0 .31-.067.403-.2.095-.133.142-.328.142-.584v-.118z"/></symbol><symbol id="icon-logo2" viewBox="0 0 25 32"><path  d="M10.447 1.806h.084c.156 0 .324.015.49.03a13.96 13.96 0 012.18.329V.403a12.432 12.432 0 00-2.207-.357l-.042-.002c-.254-.02-.571-.035-.889-.043H9.779c-1.523.006-3.04.201-4.515.582a18.28 18.28 0 00-4.79 1.948v17.475a18.922 18.922 0 014.431-1.75l.135-.029a19.11 19.11 0 013.78-.586l.052-.002h.052c.216-.011.433-.017.655-.018V15.83c-1.78.024-3.493.264-5.129.695l.147-.033c-.603.157-1.185.326-1.731.513l-.623.212V3.591l.266-.128c1.89-.918 4.096-1.513 6.424-1.649l.047-.002.028-.001.029.001h-.001c.248-.012.497-.018.742-.018h.28c.129.003.258.006.388.014z"/><path  d="M14.838 3.651h-.016c-.915 0-1.811-.077-2.684-.225l.094.013c-.277-.047-.55-.103-.814-.164V20.55c1.12.277 2.271.412 3.425.404a18.432 18.432 0 004.643-.61l-.128.029a18.299 18.299 0 004.877-1.995l-.085.047V1.262a19.021 19.021 0 01-4.429 1.751l-.136.03a19.338 19.338 0 01-4.746.609zm6.907.299l.623-.209v13.63l-.266.129c-.903.443-1.963.834-3.065 1.118l-.119.026a16.52 16.52 0 01-4.074.527c-.411 0-.818-.017-1.214-.052l-.426-.038V5.064l.497.033c.361.023.735.034 1.141.034a21.134 21.134 0 005.32-.696l-.147.033a25.26 25.26 0 001.924-.576l-.193.058zM1.684 25.977a.916.916 0 00-.661-.281l-.033.001h.002-.014c-.139 0-.272.028-.393.078l.007-.003a.904.904 0 00-.51.512l-.002.006a1.002 1.002 0 00-.072.386v2.335c-.006.164.026.328.092.479a.83.83 0 00.554.479c.114.031.231.048.349.048a.985.985 0 00.968-.982v-.261h-.61v.221a.53.53 0 01-.038.199l.001-.004a.38.38 0 01-.089.132.426.426 0 01-.255.089.308.308 0 01-.286-.125l-.001-.001a.548.548 0 01-.082-.289l.001-.024v.001-2.177a.74.74 0 01.075-.349.31.31 0 01.262-.143l.038.002H.986h.012c.107 0 .201.052.26.131l.001.001a.494.494 0 01.102.301v.013-.001.202h.604v-.238-.011c0-.143-.027-.28-.077-.405l.003.007a.955.955 0 00-.205-.329zm3.626-.026a1.055 1.055 0 00-1.058-.191.963.963 0 00-.556.511l-.002.006a1.08 1.08 0 00-.089.452v2.239c-.004.158.026.314.089.458a.89.89 0 00.237.313.955.955 0 00.322.197 1.048 1.048 0 001.06-.198l-.001.001a.962.962 0 00.23-.313c.063-.144.093-.301.089-.458v-2.239-.021c0-.156-.033-.304-.092-.438l.003.007a1.016 1.016 0 00-.23-.327zm-.285 3.018l.001.034a.4.4 0 01-.123.29.445.445 0 01-.575-.001l.001.001a.398.398 0 01-.121-.326v.002-2.239l-.001-.034a.4.4 0 01.123-.289.445.445 0 01.575.001l-.001-.001a.4.4 0 01.121.325v-.002 2.24zm5.047 1v-4.24h-.586l-.77 2.244h-.011l-.777-2.244h-.581v4.239h.606V27.39h.011l.593 1.823h.302l.598-1.823h.011v2.578h.605zm3.441-3.942a.834.834 0 00-.342-.232 1.31 1.31 0 00-.416-.066h-.024.001-.9v4.24h.604v-1.656h.311a1.1 1.1 0 00.545-.116.88.88 0 00.329-.32l.002-.004a1 1 0 00.138-.369c.021-.133.033-.287.033-.444v-.04.002a2.426 2.426 0 00-.059-.606.906.906 0 00-.223-.39zm-.312 1.292a.538.538 0 01-.057.224l.001-.003a.342.342 0 01-.154.147l-.002.001a.617.617 0 01-.254.054l-.033-.001h.002-.275V26.3h.311l.029-.001c.088 0 .172.02.247.055l-.004-.002a.35.35 0 01.141.154l.001.002a.62.62 0 01.053.236v.282c0 .098.006.201 0 .291h-.006zm3.173-1.59h-.495l-.934 4.24h.604l.177-.911h.823l.178.911h.604l-.958-4.24zm-.557 2.752l.297-1.537h.011l.295 1.537h-.604zm4.46-.198h-.011l-.913-2.554h-.58v4.24h.604v-2.55h.012l.923 2.549h.569v-4.239h-.604v2.554zm3.691-2.554l-.486 1.686h-.012l-.486-1.686h-.639l.83 2.448v1.791h.604v-1.791l.83-2.447h-.64zM0 31.166h.291v.817h.198v-.817h.289v-.167H0v.168zm2.447-.168l-.382.985h.21l.081-.224h.392l.084.224h.215l-.391-.985h-.21zm-.03.595l.134-.365.134.365h-.268zm2.449.027h.228v.127a.378.378 0 01-.234.083h-.014a.25.25 0 01-.195-.094.406.406 0 01-.073-.234l.001-.023v.001c0-.219.095-.329.283-.329l.021-.001c.097 0 .178.067.201.157v.001l.194-.038c-.042-.192-.18-.289-.417-.289h-.013a.492.492 0 00-.331.127.48.48 0 00-.141.38v-.002.023c0 .132.048.254.127.347l-.001-.001c.087.09.209.146.343.146L4.877 32h-.001.016c.155 0 .296-.06.402-.157v-.388h-.426v.166zm2.471-.622h-.198v.985h.689v-.167h-.49v-.817zm2.089 0h-.199v.985h.199v-.985zm2.042.657l-.403-.657h-.193v.985h.185v-.643l.396.643h.198v-.985h-.182v.658zm1.847-.106h.49v-.167h-.49v-.215h.527v-.168h-.727v.985h.747v-.167h-.548v-.266zm4.477-.163h-.388v-.388h-.198v.984h.198v-.431h.388v.431h.198v-.985h-.197v.388zm1.857.163h.492v-.167h-.492v-.215h.529v-.168h-.726v.985h.746v-.167h-.548v-.266zm2.519.001c.172-.027.258-.118.258-.274a.23.23 0 00-.095-.219h-.001a.555.555 0 00-.25-.059l-.04.001h.002-.417v.984h.197v-.412h.055c.039 0 .076.008.109.023l-.002-.001a.201.201 0 01.07.072l.215.313h.236l-.119-.192a.697.697 0 00-.216-.235l-.002-.002zm-.199-.137h-.146v-.247h.156a.515.515 0 01.205.024l-.004-.001a.126.126 0 01.028.157v-.001a.128.128 0 01-.037.043.537.537 0 01-.164.025l-.038-.001h.002zm2.099.136h.49v-.167h-.49v-.215h.529v-.168h-.728v.985h.747v-.167h-.548v-.266z"/></symbol>><symbol id="icon-logo3" viewBox="0 0 31 32"><path  d="M4.723 31.103c.023.001.044.01.06.025l.153.161c-.119.13-.266.234-.431.304a1.533 1.533 0 01-.61.109h-.031c-.196 0-.383-.038-.554-.106l.01.004a1.25 1.25 0 01-.709-.725l-.003-.009a1.591 1.591 0 01-.097-.55v-.022-.022c0-.198.038-.387.108-.56l-.004.01a1.318 1.318 0 01.757-.734 1.65 1.65 0 01.592-.102c.188-.004.374.027.549.093.151.063.29.149.412.257l-.129.171a.118.118 0 01-.032.031.077.077 0 01-.045.014h-.007a.12.12 0 01-.056-.019l-.069-.045-.096-.059a1.024 1.024 0 00-.296-.101l-.006-.001a1.233 1.233 0 00-.209-.018h-.02.001-.016c-.147 0-.288.028-.417.079l.008-.003a.964.964 0 00-.333.216 1.002 1.002 0 00-.216.342 1.27 1.27 0 00-.079.452c-.002.156.025.313.079.46.046.126.119.242.212.341a.863.863 0 00.318.212c.125.049.259.074.394.073.078.001.156-.004.234-.015a.879.879 0 00.505-.235.112.112 0 01.073-.03zm4.421-.807c.002.194-.033.387-.103.568a1.246 1.246 0 01-.288.44 1.314 1.314 0 01-.444.286l-.009.003a1.695 1.695 0 01-1.176-.004l.012.004a1.331 1.331 0 01-.45-.29 1.3 1.3 0 01-.288-.436l-.003-.009a1.614 1.614 0 01.004-1.147l-.004.011a1.34 1.34 0 01.29-.447 1.32 1.32 0 01.441-.276l.009-.003A1.674 1.674 0 018.311 29l-.012-.004a1.29 1.29 0 01.741.729c.071.182.106.376.104.571zm-.402 0v-.024c0-.155-.027-.303-.076-.441l.003.009a.907.907 0 00-.522-.554l-.006-.002a1.219 1.219 0 00-.855.003l.009-.003a.903.903 0 00-.528.55l-.002.006a1.465 1.465 0 000 .912.899.899 0 00.524.552l.006.002c.273.097.573.097.846 0a.903.903 0 00.324-.214.972.972 0 00.205-.341 1.29 1.29 0 00.073-.456zm3.418.478l.041.102c.015-.036.028-.069.044-.102.017-.04.034-.073.052-.105l-.003.005.978-1.694c.019-.03.036-.048.056-.053s.043-.009.066-.009h.015-.001.289v2.755h-.342v-2.11l-.001-.048.002-.05v.002l-.984 1.718a.149.149 0 01-.057.062h-.001a.16.16 0 01-.082.022h-.057c-.03.001-.06-.007-.084-.022s-.045-.036-.058-.062v-.001l-1.012-1.73v2.212h-.331v-2.75h.303a.22.22 0 01.068.01h-.002a.107.107 0 01.053.052v.001l.999 1.696c.018.028.035.06.048.094l.001.004zm3.681-.136v1.031h-.383v-2.75h.887c.158 0 .311.022.455.063l-.012-.003a.927.927 0 01.337.171c.085.074.15.167.191.27a.925.925 0 01.066.352.84.84 0 01-.071.352.76.76 0 01-.205.274l-.001.001a.953.953 0 01-.333.181l-.007.002a1.498 1.498 0 01-.461.064l-.463-.007zm0-.296h.463a.961.961 0 00.297-.042.627.627 0 00.215-.12l-.001.001c.056-.049.1-.11.129-.178l.001-.003a.565.565 0 00.046-.225v-.008l.001-.028a.506.506 0 00-.041-.199l.001.003a.544.544 0 00-.133-.188.763.763 0 00-.457-.15l-.061.002h.003-.463v1.134zm5.145 1.331h-.307a.134.134 0 01-.079-.026.168.168 0 01-.049-.063v-.001l-.26-.665h-1.307l-.27.665a.152.152 0 01-.047.061.135.135 0 01-.081.028h-.307l1.148-2.756h.398l1.164 2.756zm-1.895-1.023h1.08l-.455-1.122c-.03-.07-.06-.157-.083-.245l-.003-.014-.045.144a1.282 1.282 0 01-.045.126l.003-.009-.452 1.119zm3.549-1.72c.023.013.043.03.058.05l1.674 2.076v-2.139h.342v2.756h-.196a.164.164 0 01-.074-.017h.001a.233.233 0 01-.061-.051L22.71 29.53a.753.753 0 010 .095v2.049h-.342v-2.756h.203c.024 0 .047.004.068.013zm4.897 1.647v1.094h-.383v-1.094l-1.058-1.66H26.445c.028 0 .054.009.075.024a.251.251 0 01.052.061l.001.001.662 1.07c.045.07.085.151.114.236l.002.008.05-.118a.89.89 0 01.066-.126l.653-1.078a.284.284 0 01.05-.059.117.117 0 01.076-.027h.352l-1.06 1.667zm-15.566-6.284c.167.02.335.037.505.051 2.582-1.101 4.768-2.902 6.282-5.18s2.29-4.93 2.23-7.625l-2.846-2.712c.189.894.297 1.921.297 2.974 0 2.015-.396 3.937-1.115 5.694l.036-.1c-1.09 2.731-2.956 5.12-5.389 6.899z"/><path  d="M10.954 24.167l.077.015c2.6-1.773 4.583-4.247 5.692-7.104.627-1.564.99-3.377.99-5.275 0-1.296-.17-2.553-.488-3.75l.023.102-4.054-3.862c1.269 2.396 2.014 5.238 2.014 8.254 0 .702-.04 1.394-.119 2.075l.008-.083c-.396 3.519-1.833 6.857-4.143 9.628zm13.75-9.443c-.689 2.962-2.361 5.632-4.77 7.616a14.98 14.98 0 01-2.191 1.51l-.075.039a13.579 13.579 0 005.285-2.851l-.016.013a12.76 12.76 0 003.38-4.679l.031-.084-1.645-1.565z"/><path  d="M24.06 14.288l-2.341-2.23a13.684 13.684 0 01-2.23 7.249l.032-.053c-1.394 2.169-3.373 3.943-5.729 5.137h.012c.525 0 1.049-.03 1.571-.089a14.47 14.47 0 005.65-3.95l.014-.017a13.397 13.397 0 003.005-5.958l.016-.089zM11.294 2.664L8.501 0c-2.497.919-4.644 2.535-6.16 4.636S.008 9.225.001 11.775c.01 2.818 1.005 5.552 2.829 7.77s4.372 3.793 7.242 4.476c2.562-2.973 4.061-6.647 4.281-10.488s-.851-7.648-3.059-10.87zm19.218 11.214c-.01-3.343-1.408-6.547-3.89-8.91s-5.843-3.696-9.352-3.706a13.674 13.674 0 00-4.741.841l17.099 16.29c.559-1.335.884-2.886.884-4.513v-.002z"/></symbol><symbol id="icon-logo4" viewBox="0 0 60 32"><path  d="M9.229 9.548h-.002c-1.684 0-3.049 1.331-3.049 2.971v.002c0 1.64 1.365 2.971 3.048 2.971h.002c1.684 0 3.049-1.331 3.049-2.971v-.002c0-1.64-1.365-2.97-3.049-2.97zm22.501-.949a8.508 8.508 0 00-2.59-6.075A8.954 8.954 0 0022.909 0c-2.339.004-4.581.912-6.236 2.523s-2.585 3.797-2.59 6.076v12.566S31.728 19.25 31.73 8.601v-.002zM0 25.289a5.909 5.909 0 001.801 4.226l.002.001a6.223 6.223 0 004.336 1.758 6.215 6.215 0 004.337-1.759l-.002.002a5.906 5.906 0 001.804-4.224v-8.746S0 17.882 0 25.29zm6.14 1.566h-.002c-.331 0-.639-.098-.897-.267l.006.004a1.579 1.579 0 01-.589-.693l-.004-.01a1.506 1.506 0 01-.089-.915l-.002.01c.062-.304.215-.583.439-.802.22-.213.5-.365.814-.427l.01-.002c.312-.061.635-.03.929.089s.545.319.722.577a1.546 1.546 0 01.146 1.481l.004-.01c-.08.191-.199.365-.348.511s-.327.262-.522.341a1.61 1.61 0 01-.616.12H6.14v-.006zm12.532-.971h-1.256v1.297h-.655v-3.173h2.067v.53h-1.412v.819h1.255v.528zm3.143-.218c0 .313-.055.586-.166.822a1.248 1.248 0 01-1.157.737h-.026.001c-.263 0-.498-.063-.704-.19a1.269 1.269 0 01-.476-.533l-.003-.008c-.109-.23-.173-.5-.173-.785v-.028.001-.158c0-.313.056-.588.168-.825a1.26 1.26 0 01.477-.547c.207-.128.442-.192.707-.192s.499.064.704.192c.206.127.365.309.477.547.114.237.17.511.17.822v.141zm-.662-.144c0-.333-.06-.586-.179-.759a.585.585 0 00-.485-.26l-.027.001h.001l-.025-.001a.58.58 0 00-.482.256l-.001.002c-.119.17-.179.42-.181.749v.155c0 .324.06.576.179.755s.29.268.514.268l.026.001c.2 0 .375-.101.479-.255l.001-.002c.118-.173.177-.424.179-.755v-.155zm2.783.826v-.018a.334.334 0 00-.13-.264l-.001-.001c-.087-.067-.244-.137-.471-.21a3.363 3.363 0 01-.558-.227l.019.009c-.36-.195-.54-.457-.54-.787 0-.171.048-.324.144-.458.098-.135.236-.24.417-.316s.385-.113.61-.113c.227 0 .429.042.607.124s.314.197.412.347c.099.15.149.32.149.511h-.655a.422.422 0 00-.137-.338c-.092-.082-.22-.123-.386-.123-.159 0-.284.034-.372.103a.315.315 0 00-.134.259v.008c0 .103.052.189.156.259s.258.135.46.196c.372.112.643.251.813.417s.255.372.255.618c0 .275-.104.491-.312.647s-.487.234-.839.234c-.244 0-.466-.045-.667-.133a1.081 1.081 0 01-.458-.365l-.002-.003a.934.934 0 01-.157-.522v-.019.001h.656c0 .35.209.525.628.525a.61.61 0 00.364-.094.31.31 0 00.131-.254v-.013.001zm3.491-1.811h-.973v2.644H25.8v-2.644h-.959v-.53h2.586v.53zm2.285 1.268h-1.255v.85h1.474v.525h-2.128v-3.173h2.124v.53h-1.469v.756h1.255v.513zm1.777.214h-.521v1.162h-.655v-3.173h1.18c.375 0 .664.083.868.251s.305.403.305.708a.992.992 0 01-.141.543.955.955 0 01-.419.341l-.006.002.687 1.297v.03h-.702l-.595-1.162zm-.521-.53h.528c.164 0 .291-.042.381-.124a.45.45 0 00.136-.323l-.001-.025v.001a.47.47 0 00-.129-.353c-.084-.086-.214-.129-.39-.129h-.525v.953zm3.963.573v1.119h-.654v-3.173h1.238c.238 0 .448.043.628.131.182.087.321.211.418.372s.147.342.147.548c0 .311-.107.557-.321.737-.212.179-.506.268-.883.268h-.573zm0-.529h.584c.173 0 .305-.041.394-.123.092-.081.138-.197.138-.348l.001-.023a.522.522 0 00-.139-.355.519.519 0 00-.38-.149h-.599v.997zm4.138.272h-1.255v.85h1.474v.525H37.16v-3.173h2.124v.53h-1.47v.756h1.256v.513zm3.036-1.268h-.973v2.644h-.654v-2.644h-.959v-.53h2.586v.53zm2.284 1.268h-1.256v.85h1.474v.525H42.48v-3.173h2.123v.53h-1.47v.756h1.256v.513zm1.777.214h-.521v1.162h-.655v-3.173h1.18c.375 0 .665.083.868.251s.305.403.305.708a.992.992 0 01-.141.543.955.955 0 01-.419.341l-.006.002.687 1.297v.03h-.703l-.595-1.162zm-.521-.53h.527c.164 0 .292-.042.382-.124a.45.45 0 00.136-.323l-.001-.025v.001a.474.474 0 00-.129-.353c-.084-.086-.214-.129-.391-.129h-.525v.953zm3.844.859v-.018a.329.329 0 00-.131-.264l-.001-.001c-.088-.067-.244-.137-.471-.21a3.363 3.363 0 01-.558-.227l.019.009c-.36-.195-.54-.457-.54-.787 0-.171.048-.324.144-.458s.236-.24.417-.316c.182-.075.385-.113.61-.113.227 0 .429.042.606.124s.315.197.412.347c.099.15.149.32.149.511h-.655a.422.422 0 00-.137-.338c-.092-.082-.22-.123-.386-.123-.16 0-.284.034-.372.103a.315.315 0 00-.134.259v.008c0 .103.052.189.156.259s.258.135.46.196c.372.112.643.251.813.417s.255.372.255.618c0 .275-.104.491-.312.647s-.487.234-.839.234c-.244 0-.466-.045-.667-.133a1.087 1.087 0 01-.458-.365l-.002-.003a.934.934 0 01-.157-.522v-.019.001h.656c0 .35.208.525.627.525a.614.614 0 00.365-.094.311.311 0 00.13-.253v-.014.001z"/></symbol><symbol id="icon-logo6" viewBox="0 0 62 32"><path d="M31.123 14.854a2.248 2.248 0 01-.396-1.437v.007-2.074c0-.637.131-1.12.394-1.45s.715-.495 1.356-.494c.602 0 1.03.141 1.282.422.275.359.41.798.378 1.241v.487h-1.076v-.494l.001-.064c0-.148-.012-.293-.034-.435l.002.016a.482.482 0 00-.153-.287.575.575 0 00-.345-.113l-.048.002h.002a.616.616 0 00-.412.119l.002-.001a.568.568 0 00-.178.313l-.001.004a2.594 2.594 0 00-.042.513v2.518c-.017.243.031.486.138.707a.526.526 0 00.212.171l.003.001a.544.544 0 00.28.04h-.003a.545.545 0 00.382-.115l-.001.001a.522.522 0 00.16-.303v-.003c.026-.167.037-.336.034-.504v-.511h1.076v.466a2.018 2.018 0 01-.376 1.311l.004-.006c-.247.308-.669.462-1.288.462s-1.088-.164-1.354-.506zm4.485.022c-.272-.323-.408-.794-.408-1.416v-2.183c0-.616.136-1.082.408-1.399s.726-.474 1.364-.473c.633 0 1.085.158 1.358.473.271.317.41.783.41 1.399v2.183c0 .616-.139 1.089-.415 1.414s-.726.487-1.353.487c-.626 0-1.09-.164-1.364-.485zm1.865-.524c.097-.202.142-.424.129-.646v-2.672l.002-.072a1.28 1.28 0 00-.133-.569l.003.007a.528.528 0 00-.216-.173l-.003-.001a.533.533 0 00-.287-.037h.003a.546.546 0 00-.289.039l.004-.001a.53.53 0 00-.22.172l-.001.001a1.263 1.263 0 00-.129.633v2.685a1.29 1.29 0 00.129.646.676.676 0 00.223.158l.004.002a.692.692 0 00.558-.002l-.005.002a.672.672 0 00.226-.16v-.013zm2.562-4.884h1.16l.872 4.028.892-4.028h1.128l.113 5.813h-.833l-.089-4.04-.861 4.04h-.669l-.892-4.054-.083 4.054h-.843l.104-5.812zm5.465 0h1.806c1.041 0 1.561.55 1.561 1.651 0 1.054-.548 1.58-1.643 1.579h-.616v2.583h-1.114l.007-5.812zm1.543 2.484a.791.791 0 00.613-.183c.128-.197.184-.427.161-.657l.001-.064c0-.164-.02-.324-.057-.476l.003.014a.425.425 0 00-.083-.161l.001.001a.496.496 0 00-.138-.116l-.002-.001a1.057 1.057 0 00-.501-.092h.003-.433v1.736h.433zm3.431-2.484h1.197l1.229 5.813h-1.039l-.243-1.341H50.55l-.25 1.341h-1.054l1.229-5.812zm1.023 3.799l-.417-2.44-.417 2.44h.834zm2.394-3.799h.781l1.494 3.316V9.468h.925v5.812h-.742l-1.503-3.462v3.462h-.957l.002-5.812zm5.367 3.596l-1.242-3.588h1.046l.758 2.305.711-2.305h1.023l-1.226 3.588v2.216h-1.07v-2.216zm-26.413 4.758v.304h-.91v2.362h-.381v-2.362h-.914v-.304h2.205zm2.852 2.666h-.302a.124.124 0 01-.075-.026.134.134 0 01-.048-.06v-.001l-.263-.633h-1.262l-.263.633a.181.181 0 01-.04.072.124.124 0 01-.076.025h-.301l1.115-2.666h.387l1.128 2.655zm-1.847-.99h1.053l-.445-1.085a1.908 1.908 0 01-.08-.236l-.003-.014-.042.141-.04.111-.442 1.083zm3.769.728c.07.003.139.003.209 0 .061-.006.12-.017.179-.032.064-.015.117-.032.169-.052l-.009.003c.049-.019.098-.042.15-.065v-.6h-.451a.082.082 0 01-.055-.021.059.059 0 01-.022-.047v-.207h.865v1.022a1.598 1.598 0 01-.459.214l-.012.003a1.76 1.76 0 01-.27.055l-.009.001a2.896 2.896 0 01-.321.017h-.017c-.197 0-.386-.037-.56-.103l.011.004a1.355 1.355 0 01-.446-.279l.001.001a1.293 1.293 0 01-.285-.414l-.003-.008a1.415 1.415 0 01-.102-.534v-.02-.018c0-.194.037-.379.104-.549l-.004.01c.064-.158.162-.301.287-.422.127-.12.279-.214.446-.277a1.71 1.71 0 01.598-.099c.104 0 .207.007.31.023a1.4 1.4 0 01.487.173c.069.042.134.088.195.139l-.108.165a.103.103 0 01-.036.036.098.098 0 01-.051.014.134.134 0 01-.069-.021h.001a1.153 1.153 0 01-.114-.066l.005.003a.905.905 0 00-.143-.07l-.007-.002a1.21 1.21 0 00-.197-.058l-.008-.001a1.495 1.495 0 00-.268-.023h-.016.001-.013c-.15 0-.293.027-.425.077l.008-.003a.94.94 0 00-.328.211.924.924 0 00-.207.332 1.338 1.338 0 00.003.898l-.003-.009c.049.125.125.24.223.335a.935.935 0 00.326.211c.142.046.292.064.442.053zm3.553-.042h1.217v.304h-1.59v-2.666h.381l-.009 2.362zm2.484.303h-.381v-2.664h.381v2.666zm1.418-2.653a.21.21 0 01.058.049l1.63 2.01-.002-.048.002-.05v.002-1.986h.333v2.676h-.192l-.013.001a.171.171 0 01-.071-.016h.001a.266.266 0 01-.06-.05l-1.628-2.007v2.072h-.319v-2.665h.198c.022 0 .043.004.063.013zm4.827-.012v.294H48.55v.88h1.095v.282H48.55v.91h1.351v.294h-1.743v-2.659h1.743zM9.95 1.359l16.929 4.55v15.946L9.952 17.308V1.359zM8.865 0v18.081l19.098 5.135V5.136L8.865-.001z"/><path  d="M19.1 31.61L0 26.471V8.391l19.1 5.137V31.61z"/><path  d="M9.181 1.155l16.707 4.493-7.105 6.728-16.71-4.495L9.18 1.154zM8.865 0L0 8.392l19.1 5.137 8.863-8.392L8.865 0zm11.31 30.593l7.787-7.374-7.787-2.096v9.47z"/></symbol><symbol id="icon-logo5" viewBox="0 0 40 32"><path  d="M3.056 26.742c.157.194.24.438.236.688l.001.053c0 .324-.141.615-.365.815l-.001.001a1.575 1.575 0 01-1.061.317H.001v-4.361h1.827a1.548 1.548 0 011.017.294l-.004-.003a.994.994 0 01.353.818v-.003c.011.24-.065.477-.212.667a.99.99 0 01-.556.34c.247.046.471.177.63.373zm-2.188-.658h.78a.733.733 0 00.497-.145.518.518 0 00.169-.383l-.002-.045v.002l.001-.037a.535.535 0 00-.167-.389.75.75 0 00-.514-.147h.003-.767v1.144zm1.354 1.672a.542.542 0 00.186-.408l-.001-.036v.002l.001-.032a.552.552 0 00-.189-.416l-.001-.001a.8.8 0 00-.48-.159l-.054.002h.002-.818v1.199h.829a.816.816 0 00.524-.151zm4.567.861l-1.016-1.704h-.382v1.704h-.874v-4.361h1.654a1.624 1.624 0 011.156.373l-.003-.002a1.391 1.391 0 01.12 1.808l.003-.004a1.337 1.337 0 01-.789.443l1.083 1.743H6.79zm-1.397-2.299h.715c.497 0 .745-.22.745-.66l.001-.037a.647.647 0 00-.184-.453.767.767 0 00-.566-.177h.003-.724l.009 1.328zm6.176 1.421H9.826l-.308.878h-.916l1.6-4.313h.991l1.593 4.312h-.916l-.301-.878zm-.233-.66l-.637-1.84-.637 1.84h1.273zm6.215 1.538h-.869l-1.945-2.965v2.965h-.866v-4.361h.866l1.945 2.982v-2.982h.868v4.361zm4.952-1.044c-.182.33-.45.593-.775.764l-.01.005a2.545 2.545 0 01-1.22.274h-1.546v-4.361h1.546l.067-.001c.42 0 .817.1 1.168.277l-.015-.007c.332.168.606.433.785.761.171.333.272.727.272 1.144s-.1.811-.278 1.158l.007-.014zm-.993-.104c.239-.278.384-.642.384-1.041s-.145-.763-.386-1.043l.002.002a1.5 1.5 0 00-1.091-.371h.004-.603v2.823h.603a1.496 1.496 0 001.088-.372l-.002.001zM12.112 0s11.201 4.246 10.962 10.39v10.392S11.881 16.534 12.115 10.39L12.112 0zm20.941 18.349a15.15 15.15 0 017.049-2.628l.068-.006v-3.253c-2.995 1.181-5.437 3.227-7.081 5.827l-.035.06z"/><path  d="M31.782 19.329c1.749-3.487 4.693-6.158 8.283-7.513l.105-.035V2.408S24.218 8.456 24.555 17.205v14.796s.711-.27 1.829-.778c0-.473 0-.95.051-1.43a15.39 15.39 0 015.325-10.446l.021-.017z"/><path  d="M30.266 24.825a15.3 15.3 0 01.558-3.03 14.243 14.243 0 00-3.378 8.921v.016a44.08 44.08 0 003.286-1.741l-.218.118c-.191-.908-.3-1.952-.3-3.021 0-.445.019-.885.056-1.32l-.004.057zm.634.053a14.803 14.803 0 00.212 3.971l-.015-.092c4.357-2.619 9.255-6.664 9.066-11.553v-.426a14.265 14.265 0 00-8.297 3.894l.005-.005a14.26 14.26 0 00-.968 4.158l-.003.052z"/></symbol></defs></svg>